<?xml version="1.0" encoding="iso-8859-1"?>
<!-- Generator: Adobe Illustrator 16.0.0, SVG Export Plug-In . SVG Version: 6.00 Build 0)  -->
<!DOCTYPE svg PUBLIC "-//W3C//DTD SVG 1.1//EN" "http://www.w3.org/Graphics/SVG/1.1/DTD/svg11.dtd">
<svg version="1.1" id="Capa_1" xmlns="http://www.w3.org/2000/svg" xmlns:xlink="http://www.w3.org/1999/xlink" x="0px" y="0px"
	 width="516.375px" height="516.375px" viewBox="0 0 516.375 516.375" style="enable-background:new 0 0 516.375 516.375;"
	 xml:space="preserve">
<g>
	<g>
		<path d="M133.875,344.25h57.375v-57.375h-57.375V344.25z M153,306h19.125v19.125H153V306z"/>
		<path d="M133.875,439.875h57.375V382.5h-57.375V439.875z M153,401.625h19.125v19.125H153V401.625z"/>
		<rect x="229.5" y="210.375" width="153" height="19.125"/>
		<path d="M325.125,0h-9.562H114.75C93.712,0,76.5,17.212,76.5,38.25v439.875c0,21.037,17.212,38.25,38.25,38.25h286.875
			c21.037,0,38.25-17.213,38.25-38.25V143.438v-9.562L325.125,0z M325.125,28.688l89.888,105.188H344.25
			c-9.562,0-19.125-9.562-19.125-19.125V28.688z M420.75,478.125c0,9.562-7.65,19.125-19.125,19.125H114.75
			c-9.562,0-19.125-7.65-19.125-19.125V38.25c0-9.562,7.65-19.125,19.125-19.125H306v95.625c0,21.038,17.213,38.25,38.25,38.25h76.5
			V478.125z"/>
		<rect x="229.5" y="306" width="153" height="19.125"/>
		<rect x="229.5" y="401.625" width="153" height="19.125"/>
		<path d="M133.875,248.625h57.375V191.25h-57.375V248.625z M153,210.375h19.125V229.5H153V210.375z"/>
	</g>
</g>
<g>
</g>
<g>
</g>
<g>
</g>
<g>
</g>
<g>
</g>
<g>
</g>
<g>
</g>
<g>
</g>
<g>
</g>
<g>
</g>
<g>
</g>
<g>
</g>
<g>
</g>
<g>
</g>
<g>
</g>
</svg>
